HIERARCHY
ROOT Hips
{
	OFFSET 0.000000 103.266502 0.000000
	CHANNELS 6 Xposition Yposition Zposition Xrotation Yrotation Zrotation 
	JOINT Spine
	{
		OFFSET -0.002400 12.777504 0.315300
		CHANNELS 3 Xrotation Yrotation Zrotation
		JOINT Spine1
		{
			OFFSET -0.002067 5.816869 0.032633
			CHANNELS 3 Xrotation Yrotation Zrotation
			JOINT Spine1_split
			{
				OFFSET -0.002067 5.816869 0.032633
				CHANNELS 3 Xrotation Yrotation Zrotation
				JOINT Spine2
				{
					OFFSET -0.002067 5.816869 0.032633
					CHANNELS 3 Xrotation Yrotation Zrotation
					JOINT Neck
					{
						OFFSET -0.003700 21.199493 -0.826900
						CHANNELS 3 Xrotation Yrotation Zrotation
						JOINT Head
						{
							OFFSET 0.000000 20.442200 4.834800
							CHANNELS 3 Xrotation Yrotation Zrotation
							JOINT HeadTop_End
							{
								OFFSET 0.000000 34.668396 4.968400
								CHANNELS 3 Xrotation Yrotation Zrotation
								End Site
								{
									OFFSET 0.000000 0.000000 0.000000
								}
							}
						}
					}
					JOINT LeftShoulder
					{
						OFFSET 3.288150 8.794197 -1.372250
						CHANNELS 3 Xrotation Yrotation Zrotation
						JOINT LeftShoulder_split
						{
							OFFSET 3.288150 8.794197 -1.372250
							CHANNELS 3 Xrotation Yrotation Zrotation
							JOINT LeftArm
							{
								OFFSET 11.953299 -2.279007 -0.146200
								CHANNELS 3 Xrotation Yrotation Zrotation
								JOINT LeftForeArm
								{
									OFFSET 18.448900 0.000000 0.000000
									CHANNELS 3 Xrotation Yrotation Zrotation
									JOINT LeftHand
									{
										OFFSET 29.527798 0.000000 0.000000
										CHANNELS 3 Xrotation Yrotation Zrotation
										JOINT LeftHandThumb1
										{
											OFFSET 10.739754 -2.369614 9.225399
											CHANNELS 3 Xrotation Yrotation Zrotation
											JOINT LeftHandThumb2
											{
												OFFSET 4.926170 -2.844131 2.844125
												CHANNELS 3 Xrotation Yrotation Zrotation
												JOINT LeftHandThumb3
												{
													OFFSET 4.614891 -2.664413 2.664409
													CHANNELS 3 Xrotation Yrotation Zrotation
													JOINT LeftHandThumb4
													{
														OFFSET 4.432465 -2.559082 2.559083
														CHANNELS 3 Xrotation Yrotation Zrotation
														End Site
														{
															OFFSET 0.000000 0.000000 0.000000
														}
													}
												}
											}
										}
										JOINT LeftHandIndex1
										{
											OFFSET 26.467674 0.187653 6.405298
											CHANNELS 3 Xrotation Yrotation Zrotation
											JOINT LeftHandIndex2
											{
												OFFSET 8.792900 0.000000 0.000000
												CHANNELS 3 Xrotation Yrotation Zrotation
												JOINT LeftHandIndex3
												{
													OFFSET 10.075203 0.000000 0.000000
													CHANNELS 3 Xrotation Yrotation Zrotation
													End Site
													{
														OFFSET 0.000000 0.000000 0.000000
													}
												}
											}
										}
										JOINT LeftHandMiddle1
										{
											OFFSET 25.764404 0.000000 0.000000
											CHANNELS 3 Xrotation Yrotation Zrotation
											JOINT LeftHandMiddle2
											{
												OFFSET 9.393974 0.000000 0.000000
												CHANNELS 3 Xrotation Yrotation Zrotation
												JOINT LeftHandMiddle3
												{
													OFFSET 10.771950 0.000000 0.000000
													CHANNELS 3 Xrotation Yrotation Zrotation
													End Site
													{
														OFFSET 0.000000 0.000000 0.000000
													}
												}
											}
										}
										JOINT LeftHandRing1
										{
											OFFSET 24.660927 0.144547 -6.225808
											CHANNELS 3 Xrotation Yrotation Zrotation
											JOINT LeftHandRing2
											{
												OFFSET 9.393799 0.000000 0.000000
												CHANNELS 3 Xrotation Yrotation Zrotation
												JOINT LeftHandRing3
												{
													OFFSET 9.928497 0.000000 0.000000
													CHANNELS 3 Xrotation Yrotation Zrotation
													End Site
													{
														OFFSET 0.000000 0.000000 0.000000
													}
												}
											}
										}
										JOINT LeftHandPinky1
										{
											OFFSET 23.655350 0.125290 -12.815412
											CHANNELS 3 Xrotation Yrotation Zrotation
											JOINT LeftHandPinky2
											{
												OFFSET 8.425102 0.000000 0.000000
												CHANNELS 3 Xrotation Yrotation Zrotation
												JOINT LeftHandPinky3
												{
													OFFSET 8.147003 0.000000 0.000000
													CHANNELS 3 Xrotation Yrotation Zrotation
													End Site
													{
														OFFSET 0.000000 0.000000 0.000000
													}
												}
											}
										}
									}
								}
							}
						}
					}
					JOINT RightShoulder
					{
						OFFSET -3.249400 8.794197 -1.372250
						CHANNELS 3 Xrotation Yrotation Zrotation
						JOINT RightShoulder_split
						{
							OFFSET -3.249400 8.794197 -1.372250
							CHANNELS 3 Xrotation Yrotation Zrotation
							JOINT RightArm
							{
								OFFSET -11.953299 -2.279007 -0.146200
								CHANNELS 3 Xrotation Yrotation Zrotation
								JOINT RightForeArm
								{
									OFFSET -18.448900 0.000000 0.000000
									CHANNELS 3 Xrotation Yrotation Zrotation
									JOINT RightHand
									{
										OFFSET -29.527802 0.000000 0.000000
										CHANNELS 3 Xrotation Yrotation Zrotation
										JOINT RightHandThumb1
										{
											OFFSET -10.739754 -2.369614 9.225399
											CHANNELS 3 Xrotation Yrotation Zrotation
											JOINT RightHandThumb2
											{
												OFFSET -4.926170 -2.844131 2.844125
												CHANNELS 3 Xrotation Yrotation Zrotation
												JOINT RightHandThumb3
												{
													OFFSET -4.614891 -2.664413 2.664409
													CHANNELS 3 Xrotation Yrotation Zrotation
													JOINT RightHandThumb4
													{
														OFFSET -4.432465 -2.559082 2.559083
														CHANNELS 3 Xrotation Yrotation Zrotation
														End Site
														{
															OFFSET 0.000000 0.000000 0.000000
														}
													}
												}
											}
										}
										JOINT RightHandIndex1
										{
											OFFSET -26.467674 0.187653 6.405298
											CHANNELS 3 Xrotation Yrotation Zrotation
											JOINT RightHandIndex2
											{
												OFFSET -8.792900 0.000000 0.000000
												CHANNELS 3 Xrotation Yrotation Zrotation
												JOINT RightHandIndex3
												{
													OFFSET -10.075203 0.000000 0.000000
													CHANNELS 3 Xrotation Yrotation Zrotation
													End Site
													{
														OFFSET 0.000000 0.000000 0.000000
													}
												}
											}
										}
										JOINT RightHandMiddle1
										{
											OFFSET -25.764404 0.000000 0.000000
											CHANNELS 3 Xrotation Yrotation Zrotation
											JOINT RightHandMiddle2
											{
												OFFSET -9.393974 0.000000 0.000000
												CHANNELS 3 Xrotation Yrotation Zrotation
												JOINT RightHandMiddle3
												{
													OFFSET -10.771950 0.000000 0.000000
													CHANNELS 3 Xrotation Yrotation Zrotation
													End Site
													{
														OFFSET 0.000000 0.000000 0.000000
													}
												}
											}
										}
										JOINT RightHandRing1
										{
											OFFSET -24.660927 0.144547 -6.225808
											CHANNELS 3 Xrotation Yrotation Zrotation
											JOINT RightHandRing2
											{
												OFFSET -9.393799 0.000000 0.000000
												CHANNELS 3 Xrotation Yrotation Zrotation
												JOINT RightHandRing3
												{
													OFFSET -9.928497 0.000000 0.000000
													CHANNELS 3 Xrotation Yrotation Zrotation
													End Site
													{
														OFFSET 0.000000 0.000000 0.000000
													}
												}
											}
										}
										JOINT RightHandPinky1
										{
											OFFSET -23.655350 0.125290 -12.815412
											CHANNELS 3 Xrotation Yrotation Zrotation
											JOINT RightHandPinky2
											{
												OFFSET -8.425102 0.000000 0.000000
												CHANNELS 3 Xrotation Yrotation Zrotation
												JOINT RightHandPinky3
												{
													OFFSET -8.147003 0.000000 0.000000
													CHANNELS 3 Xrotation Yrotation Zrotation
													End Site
													{
														OFFSET 0.000000 0.000000 0.000000
													}
												}
											}
										}
									}
								}
							}
						}
					}
				}
			}
		}
	}
	JOINT LeftUpLeg
	{
		OFFSET 11.394100 -6.187798 -0.413800
		CHANNELS 3 Xrotation Yrotation Zrotation
		JOINT LeftLeg
		{
			OFFSET 0.430247 -32.302673 3.732800
			CHANNELS 3 Xrotation Yrotation Zrotation
			JOINT LeftFoot
			{
				OFFSET -0.430247 -48.264931 -6.423300
				CHANNELS 3 Xrotation Yrotation Zrotation
				JOINT LeftToeBase
				{
					OFFSET 4.230900 -16.068199 23.438400
					CHANNELS 3 Xrotation Yrotation Zrotation
					JOINT LeftToe_End
					{
						OFFSET 4.510700 0.695400 19.974600
						CHANNELS 3 Xrotation Yrotation Zrotation
						End Site
						{
							OFFSET 0.000000 0.000000 0.000000
						}
					}
				}
			}
		}
	}
	JOINT RightUpLeg
	{
		OFFSET -11.333700 -6.187798 -0.413800
		CHANNELS 3 Xrotation Yrotation Zrotation
		JOINT RightLeg
		{
			OFFSET -0.430392 -32.302628 3.733000
			CHANNELS 3 Xrotation Yrotation Zrotation
			JOINT RightFoot
			{
				OFFSET 0.430392 -48.264973 -6.423500
				CHANNELS 3 Xrotation Yrotation Zrotation
				JOINT RightToeBase
				{
					OFFSET -4.230900 -16.068199 23.438400
					CHANNELS 3 Xrotation Yrotation Zrotation
					JOINT RightToe_End
					{
						OFFSET -4.510700 0.695400 19.974600
						CHANNELS 3 Xrotation Yrotation Zrotation
						End Site
						{
							OFFSET 0.000000 0.000000 0.000000
						}
					}
				}
			}
		}
	}
}
MOTION
Frames: 5
Frame Time: 0.016667
-0.276067 58.198540 0.062580 0.551515 -175.678722 -8.611403 4.066066 3.548076 -2.523779 8.251963 6.771407 -4.731506 0.000000 0.000000 0.000000 8.251963 6.771408 -4.731512 -1.987045 28.311179 6.773754 5.084071 36.051828 -22.849329 -0.000001 0.000000 -0.000000 1.033483 -15.235096 -11.647779 0.000000 0.000000 0.000000 3.042449 -0.761206 -32.016355 40.133553 -33.388188 -1.908166 12.866397 10.638184 2.322267 -9.419878 -10.451164 8.422295 2.321120 6.714506 2.170919 0.000010 0.000007 -0.000006 0.000001 0.000000 0.000000 -1.239096 -9.024533 -4.969422 -0.126834 0.207665 -21.714391 0.000001 -0.000001 -0.000002 1.309883 -1.012393 -8.080142 -0.178452 -0.773447 -14.430125 0.000000 0.000000 0.000000 -0.365416 2.944769 -4.498894 -0.505478 -2.597472 -30.199514 0.000000 0.000002 0.000001 0.029747 5.968244 0.715902 -0.699245 -5.770481 -39.699313 -0.000001 0.000000 -0.000001 3.185197 -18.297172 12.806533 0.000000 0.000000 0.000000 12.807458 -13.875008 59.330507 29.940787 40.956895 -3.738841 19.089479 -1.945264 12.311395 -7.852780 4.769986 -9.664436 -0.642362 -0.093878 -1.289335 0.000007 -0.000001 -0.000003 -0.000002 0.000000 -0.000000 -1.233008 0.595991 8.695218 0.120538 -1.119642 16.859798 -0.000001 -0.000001 0.000000 -1.142346 -1.774137 0.545317 -0.357895 1.142262 22.115995 0.000001 -0.000001 -0.000000 1.909922 -0.146213 -2.803252 -0.619906 3.110101 28.344747 -0.000002 0.000003 -0.000002 4.769415 -2.279019 -7.778120 -1.320418 7.677257 37.620197 0.000001 0.000001 -0.000002 -102.208392 -18.222974 7.667447 115.770778 9.412567 3.734320 -10.354793 1.397444 -12.869864 -0.722688 1.253486 0.894669 -0.000000 -0.000002 0.000000 -76.178760 18.980186 -20.838653 106.052498 -3.705705 -1.435943 -11.025077 -4.609615 29.932525 -9.240656 -3.038584 -0.168786 -0.000001 0.000002 -0.000000 
-0.279379 58.198654 0.054920 0.528900 -175.682519 -8.613266 4.060821 3.545679 -2.523190 8.241336 6.766909 -4.730121 0.000000 0.000000 0.000000 8.241346 6.766911 -4.730118 -1.988031 28.342459 6.708601 5.079928 36.041167 -22.785388 0.000000 0.000000 0.000000 1.032234 -15.314486 -11.643143 0.000000 0.000000 0.000000 3.086116 -0.688674 -32.029465 40.144560 -33.392641 -1.914894 12.845094 10.616993 2.348266 -9.419882 -10.451158 8.422300 2.321122 6.714505 2.170919 0.000012 0.000005 -0.000003 0.000001 0.000001 0.000001 -1.239127 -9.024843 -4.949864 -0.126836 0.207664 -21.714394 0.000003 0.000000 0.000000 1.310103 -1.010960 -8.062259 -0.178443 -0.773448 -14.430120 -0.000000 0.000000 0.000001 -0.365316 2.945776 -4.487020 -0.505482 -2.597473 -30.199507 0.000000 0.000000 0.000001 0.029740 5.969887 0.729943 -0.699242 -5.770481 -39.699310 -0.000001 -0.000000 0.000002 3.178412 -18.230234 12.777570 0.000000 0.000000 0.000000 12.845293 -13.905122 59.356673 29.929424 40.938692 -3.736794 19.065799 -1.958736 12.297311 -7.852779 4.769990 -9.664430 -0.642358 -0.093879 -1.289334 0.000005 -0.000000 -0.000001 -0.000006 -0.000001 -0.000000 -1.233009 0.595989 8.695224 0.120537 -1.119641 16.859796 0.000002 -0.000001 0.000001 -1.142348 -1.774140 0.545301 -0.357891 1.142260 22.115997 0.000000 0.000000 -0.000001 1.909929 -0.146215 -2.803220 -0.619905 3.110104 28.344745 -0.000003 -0.000000 -0.000001 4.769420 -2.279013 -7.778112 -1.320416 7.677254 37.620197 0.000001 -0.000001 -0.000002 -102.225495 -18.220414 7.664036 115.772635 9.412740 3.734288 -10.364908 1.399676 -12.870391 -0.721965 1.253469 0.896544 -0.000000 0.000002 0.000000 -76.196334 18.980466 -20.855998 106.054478 -3.703456 -1.435664 -11.031801 -4.603567 29.909880 -9.240659 -3.038583 -0.168776 -0.000000 -0.000001 -0.000001 
-0.286586 58.199280 0.047199 0.511522 -175.672561 -8.614307 4.057705 3.543322 -2.522730 8.234954 6.762118 -4.728766 0.000000 0.000000 0.000000 8.234952 6.762116 -4.728764 -1.961547 28.352931 6.666014 5.081371 36.036669 -22.765785 0.000000 0.000000 -0.000000 1.018268 -15.384832 -11.671200 0.000000 0.000000 0.000000 3.130068 -0.613952 -31.998436 40.157056 -33.422434 -1.934997 12.833480 10.604151 2.361225 -9.418926 -10.451639 8.419018 2.321119 6.714506 2.170920 0.000008 0.000005 -0.000006 -0.000001 0.000000 -0.000002 -1.238328 -9.020196 -4.898259 -0.126835 0.207665 -21.714394 -0.000001 -0.000000 -0.000002 1.310630 -1.007239 -8.016519 -0.178447 -0.773448 -14.430120 0.000002 0.000000 0.000001 -0.365111 2.948515 -4.454889 -0.505473 -2.597474 -30.199507 0.000002 0.000000 0.000001 0.035295 5.973110 0.766568 -0.699244 -5.770482 -39.699307 -0.000001 0.000002 -0.000002 3.169449 -18.205174 12.731744 0.000000 0.000000 0.000000 12.862354 -13.921453 59.407660 29.931050 40.882360 -3.744465 19.093910 -1.984766 12.297554 -7.852776 4.769980 -9.664445 -0.642362 -0.093877 -1.289334 0.000001 -0.000000 -0.000001 -0.000003 0.000001 -0.000000 -1.233010 0.596000 8.695218 0.120536 -1.119639 16.859796 0.000001 0.000000 0.000001 -1.142354 -1.774135 0.545306 -0.357894 1.142262 22.115999 0.000002 -0.000002 0.000001 1.909930 -0.146217 -2.803242 -0.619908 3.110105 28.344745 -0.000003 -0.000001 -0.000002 4.769416 -2.279012 -7.778117 -1.320416 7.677253 37.620197 0.000001 -0.000000 -0.000001 -102.241552 -18.207259 7.663013 115.773892 9.411107 3.734016 -10.375603 1.397409 -12.858651 -0.721105 1.253441 0.898860 0.000000 0.000001 0.000000 -76.193014 18.975060 -20.876734 106.055264 -3.703912 -1.435848 -11.051037 -4.605105 29.898818 -9.245045 -3.038561 -0.169236 0.000000 -0.000002 -0.000000 
-0.292885 58.200203 0.039001 0.494288 -175.663491 -8.615347 4.053851 3.542200 -2.520562 8.227050 6.760016 -4.723987 0.000000 0.000000 0.000000 8.227049 6.760016 -4.723984 -1.937311 28.365928 6.632013 5.105499 36.028285 -22.760301 -0.000003 -0.000000 -0.000000 1.010115 -15.419005 -11.688384 0.000000 0.000000 0.000000 3.153028 -0.589271 -31.984645 40.162650 -33.418080 -1.949315 12.827814 10.613330 2.381307 -9.417392 -10.452410 8.413798 2.321121 6.714506 2.170919 0.000007 0.000005 -0.000005 0.000005 0.000001 -0.000000 -1.237255 -9.013936 -4.828716 -0.126838 0.207664 -21.714391 0.000000 -0.000001 -0.000001 1.311325 -1.002231 -7.954888 -0.178447 -0.773447 -14.430118 0.000004 -0.000000 0.000001 -0.360613 2.951158 -4.408619 -0.505477 -2.597472 -30.199511 -0.000001 0.000001 0.000001 0.043666 5.977959 0.821837 -0.699240 -5.770483 -39.699310 0.000001 -0.000001 -0.000000 3.165844 -18.194357 12.713010 0.000000 0.000000 0.000000 12.873439 -13.941521 59.432666 29.941442 40.850958 -3.760488 19.119774 -2.010040 12.308806 -7.852769 4.769965 -9.664430 -0.642360 -0.093878 -1.289334 0.000008 0.000001 -0.000000 -0.000001 -0.000001 -0.000001 -1.233002 0.595987 8.695236 0.120537 -1.119642 16.859796 -0.000002 -0.000001 0.000001 -1.142356 -1.774149 0.545309 -0.357890 1.142261 22.115995 -0.000003 0.000001 -0.000001 1.909933 -0.146228 -2.803238 -0.619907 3.110101 28.344745 0.000001 -0.000001 -0.000000 4.769425 -2.279036 -7.778106 -1.320416 7.677256 37.620197 0.000001 0.000000 -0.000000 -102.257644 -18.194748 7.661879 115.777662 9.409897 3.733407 -10.385712 1.394637 -12.847643 -0.721088 1.253452 0.898864 -0.000000 -0.000000 0.000000 -76.190241 18.970570 -20.895304 106.056015 -3.705463 -1.435715 -11.068117 -4.606693 29.889553 -9.257409 -3.043240 -0.171270 -0.000000 -0.000002 -0.000000 
-0.301929 58.199486 0.031570 0.479675 -175.646074 -8.623179 4.050686 3.543740 -2.514131 8.220300 6.763316 -4.710184 0.000000 0.000000 0.000000 8.220297 6.763312 -4.710174 -1.801247 28.372368 6.520776 5.041898 36.023135 -22.741989 -0.000002 -0.000000 0.000000 0.975622 -15.461781 -11.770705 0.000000 0.000000 0.000000 3.170430 -0.536182 -31.902232 40.187617 -33.466988 -1.974901 12.825617 10.639228 2.398144 -9.415557 -10.453323 8.407587 2.321125 6.714505 2.170919 0.000012 0.000005 -0.000004 0.000006 0.000001 0.000000 -1.236096 -9.007294 -4.754698 -0.126837 0.207665 -21.714391 0.000000 -0.000002 -0.000001 1.312059 -0.996904 -7.889210 -0.178446 -0.773448 -14.430118 0.000001 0.000001 -0.000001 -0.355164 2.954374 -4.352765 -0.505480 -2.597473 -30.199507 0.000001 0.000001 -0.000000 0.053672 5.984124 0.890974 -0.699240 -5.770482 -39.699307 -0.000001 -0.000001 0.000001 3.159097 -18.210497 12.673941 0.000000 0.000000 0.000000 12.884378 -13.954240 59.461626 29.974562 40.815851 -3.790381 19.161534 -2.045046 12.317907 -7.852779 4.769976 -9.664442 -0.642366 -0.093877 -1.289331 0.000004 -0.000001 -0.000003 -0.000001 -0.000001 0.000000 -1.233003 0.595996 8.695224 0.120535 -1.119640 16.859796 0.000004 -0.000001 -0.000001 -1.142353 -1.774129 0.545317 -0.357891 1.142264 22.115995 -0.000003 -0.000001 -0.000000 1.909921 -0.146233 -2.803251 -0.619905 3.110099 28.344742 0.000000 -0.000001 0.000001 4.769417 -2.279010 -7.778098 -1.320417 7.677256 37.620197 0.000001 -0.000001 -0.000001 -102.283674 -18.188782 7.656900 115.787607 9.404791 3.731201 -10.389895 1.387781 -12.831441 -0.721884 1.253482 0.896749 -0.000000 -0.000002 -0.000000 -76.177141 18.956908 -20.929726 106.052948 -3.685558 -1.442262 -11.081600 -4.608666 29.886558 -9.259022 -3.053260 -0.173073 -0.000000 0.000002 0.000000 
